<svg version="1.1" xmlns="http://www.w3.org/2000/svg" viewBox="0 0 1751 1168" width="1751" height="1168">
	<title>Logo L'osmose</title>
	<style>
		tspan { white-space:pre } 
		.t0 { font-size: 50px;fill: #000000;font-weight: 400;font-family: "DancingScript-Bold", "Dancing Script", cursive } 
    #osmose { font-weight: 700 }
		.s2 { fill: #000000;stroke: #000000;stroke-width: 0 } 
	</style>
	<text id="osm ose" style="transform: matrix(9.142,0,0,9.142,396.653,762.86)" >
		<tspan x="0" y="0" class="t0">osm ose</tspan>
	</text>
	<text id="toi &amp; moi" style="transform: matrix(3.063,0,0,3.063,1124.182,930.387)" >
		<tspan x="0" y="0" class="t0">toi &amp; moi</tspan>
	</text>
	<path id="quote" class="s2" d="m1084.6 174.4c3 25.5-7 57.5-25 77.5-27 30.5-63.5 41-63.5 18 0-6.5 3.5-14.5 8-18.5 4-3.5 10.5-12 14.5-19.5 9.5-19 27.5-73 27.5-84 0-5 1.5-11 3.5-12.5 12.5-12.5 32 9 35 39z"/>
	<path id="L" class="s2" d="m373.6 347c22-36 53.5-78.5 69-95 78.5-82 173.5-142 264-165 39.5-10 103-9 136.5 2 42 14.5 54 21.5 75.5 46.5 48 54.5 51 117.5 7 164.5-27 28.5-47 36.5-89 33.5-24.5-1.5-35-5-49.5-16-24-18.5-36.5-36.5-29-44 4-4 11-2 25.5 8 18.5 13 23 14 58.5 12 37-1.5 38.5-2 57-22.5 21.5-22.5 32.5-54.5 28-79-4.5-24.5-34-55-61.5-64.5-27-9.5-108-11-139-2.5-69 18-139.5 55-196.5 102-44 36.5-96.5 96.5-118.5 134.5-10 17-29 47.5-42.5 68-13.5 20.5-36 60-50 87.5-14.5 27.5-29 53.5-32 57.5-3.5 4-11 16-17 26.5-14 24-77.5 104.5-102 129.5-21 20.5-23.5 29-10 29 14 0 58.5 23 95 48.5 18.5 13 63 52 98.5 87 36 34.5 82.1 64.8 85.2 70.2 4 3.5 37.5 25.8 54.8 31.8 35.3 12.2 21.4 14.2 84.9 25.4 76.3 13.6 120.7 5.8 176.4 0.1 26.3-2.7 88.4-26.1 97.9-29.1 32.5-9.5 65.3-35.8 107.3-70.8 38.5-32 62.9-69.3 72.1-82.9 0-1.5 28.9-28.6 37.9-65.6 6.8-27.7 9-16.6 11.5-61.1 2.2-39.1 4.3-115.6-21.8-131.5-39.4-24-17.6-13.1-53.2-27-24.8-9.7-34.9-9.1-43.4-18.1-18.5-20-6-25.3 34.9-11.4 61.4 20.9 8.7 0 53.1 21.7 28.4 13.8 45.2 28.3 52.5 89.2 6.7 57.1-2 130.5-12.1 160.1-7 20.5-51.3 84.4-65.4 104.3-16.2 22.9-64.8 57.4-106.6 93.1-17.2 14.7-73.6 38.5-131.5 53.6-45.8 11.9-106.5 18-183.5 10.5-70-6.5-75-8-113.5-27.5-73.5-38-91-50.5-159.5-115.5-111.5-106-141-124.5-213.5-134.5-22.5-3.5-38-9-50.5-18-18.5-14.5-18-18 7.5-26.5 25-8.5 68.5-39.5 87.5-62.5 51.5-63 101-137.5 138.5-208.5 6.5-12.5 52-82 74.5-117.5z"/>
</svg>