<?xml version="1.0" standalone="no"?>
<!DOCTYPE svg PUBLIC "-//W3C//DTD SVG 20010904//EN"
 "http://www.w3.org/TR/2001/REC-SVG-20010904/DTD/svg10.dtd">
<svg version="1.0" xmlns="http://www.w3.org/2000/svg"
 width="1100.000000pt" height="1100.000000pt" viewBox="0 0 1100.000000 1100.000000"
 preserveAspectRatio="xMidYMid meet">
<metadata>
Created by potrace 1.14, written by Peter Selinger 2001-2017
</metadata>
<g transform="translate(0.000000,1100.000000) scale(0.100000,-0.100000)"
fill="#000000" stroke="none">
<path d="M7208 10565 c-2 -2 -41 -6 -87 -9 -111 -9 -298 -41 -384 -67 -39 -11
-79 -22 -90 -25 -53 -10 -378 -126 -472 -168 -16 -8 -59 -26 -95 -42 -82 -36
-351 -170 -410 -205 -350 -206 -482 -293 -710 -465 -250 -188 -445 -359 -676
-589 -216 -215 -293 -305 -486 -570 -152 -209 -196 -277 -811 -1240 -67 -104
-125 -194 -130 -200 -23 -29 -121 -193 -167 -280 -281 -528 -633 -1085 -1019
-1605 -234 -316 -394 -512 -487 -596 -282 -255 -524 -408 -821 -519 -127 -47
-150 -83 -93 -148 63 -72 169 -141 292 -190 59 -24 92 -33 183 -53 11 -3 101
-18 200 -35 99 -16 225 -41 280 -55 379 -96 711 -304 1240 -779 63 -56 340
-312 380 -350 17 -16 84 -79 149 -140 65 -60 135 -126 155 -145 42 -40 154
-143 227 -210 69 -63 277 -237 349 -291 67 -51 283 -199 290 -199 3 0 35 -19
72 -42 38 -23 97 -57 133 -76 36 -20 88 -48 115 -64 62 -35 473 -240 537 -268
56 -24 198 -66 248 -73 19 -3 64 -10 100 -15 36 -6 88 -13 115 -17 28 -3 65
-7 83 -10 18 -2 67 -7 110 -10 42 -4 88 -8 102 -11 14 -2 61 -6 105 -9 44 -4
94 -8 110 -10 197 -24 889 -24 1036 0 13 2 56 6 94 9 66 6 96 10 170 21 17 3
48 7 70 11 34 5 110 19 215 40 321 64 929 276 1209 420 161 82 201 108 311
204 36 31 126 105 200 166 74 60 142 114 150 121 8 7 58 46 110 88 241 194
434 369 511 465 59 73 398 575 488 720 18 30 41 67 51 81 41 59 140 259 159
321 24 79 77 346 85 433 4 33 9 78 12 100 11 87 14 114 21 215 15 205 7 754
-12 830 -2 8 -6 33 -10 55 -54 375 -150 582 -328 709 -34 24 -127 78 -207 119
-80 41 -163 84 -185 95 -38 21 -447 154 -510 166 -83 17 -104 20 -156 20 -104
1 -117 -46 -41 -145 60 -80 100 -103 297 -167 240 -79 410 -146 487 -194 38
-24 102 -64 143 -89 93 -57 126 -84 158 -132 46 -68 98 -233 113 -357 3 -30 8
-58 10 -61 16 -29 23 -528 11 -784 -14 -279 -23 -337 -77 -499 -17 -48 -32
-100 -35 -115 -19 -103 -98 -286 -173 -400 -66 -98 -153 -213 -192 -251 -3 -3
-23 -32 -44 -65 -41 -64 -222 -310 -247 -335 -8 -8 -36 -42 -64 -75 -52 -62
-250 -264 -320 -326 -62 -54 -362 -299 -435 -354 -36 -27 -69 -53 -75 -57
-154 -122 -411 -274 -545 -323 -439 -160 -921 -305 -1060 -319 -36 -4 -126
-14 -200 -22 -74 -8 -157 -16 -185 -19 -27 -3 -66 -7 -85 -10 -114 -13 -295
-20 -510 -20 -238 0 -319 5 -510 30 -19 2 -57 7 -85 10 -58 6 -82 10 -185 30
-41 8 -93 17 -115 21 -22 3 -56 9 -75 14 -19 5 -51 11 -70 14 -91 14 -244 60
-335 101 -33 15 -123 52 -200 82 -196 76 -515 257 -610 346 -16 15 -101 83
-189 150 -395 304 -533 421 -811 692 -77 75 -334 311 -389 358 -11 10 -32 28
-46 40 -57 52 -289 245 -340 283 -249 186 -686 433 -882 499 -42 14 -100 27
-129 30 -127 12 -107 74 90 280 94 98 191 209 315 360 59 72 117 141 129 155
56 66 345 441 435 565 56 77 129 187 163 245 34 58 91 147 126 198 80 117 226
376 398 707 147 282 336 607 523 895 103 159 178 279 315 505 133 218 185 294
314 461 326 419 768 858 1133 1126 511 375 1162 694 1699 834 157 41 170 42
426 62 153 12 554 4 685 -13 19 -3 57 -7 85 -11 44 -5 93 -13 160 -28 101 -21
222 -80 327 -157 102 -76 236 -224 290 -321 67 -120 81 -167 84 -283 3 -104
-8 -182 -37 -274 -57 -178 -152 -325 -319 -492 -88 -88 -100 -97 -165 -117
-85 -26 -245 -39 -531 -42 -87 -1 -139 4 -180 15 -54 16 -162 74 -239 130 -46
34 -127 73 -163 79 -27 5 -38 1 -59 -20 -23 -23 -25 -31 -19 -72 8 -64 76
-161 178 -257 131 -123 241 -195 348 -227 109 -33 162 -39 380 -43 150 -3 201
0 271 15 165 34 288 104 443 251 354 336 463 742 318 1184 -69 209 -210 425
-415 634 -155 158 -267 222 -597 340 -149 53 -245 73 -490 100 -68 7 -495 12
-502 6z"/>
<path d="M10151 9964 c-33 -28 -46 -64 -55 -162 -7 -69 -71 -291 -139 -482
-110 -308 -151 -387 -267 -517 -58 -64 -81 -112 -86 -176 -6 -91 38 -138 128
-138 123 0 291 92 445 242 82 80 132 147 181 239 181 338 174 742 -16 952 -66
73 -136 89 -191 42z"/>
<path d="M5832 6510 c-54 -25 -108 -91 -123 -152 -15 -63 -16 -76 -18 -158 -1
-60 -6 -74 -62 -175 -80 -145 -210 -319 -349 -468 -51 -55 -105 -84 -126 -67
-9 8 -14 6 -19 -10 -4 -11 -25 -33 -48 -48 -56 -36 -83 -67 -111 -127 -21 -45
-31 -54 -97 -86 -84 -42 -184 -67 -248 -62 -43 2 -111 20 -111 29 0 2 15 27
33 56 166 262 271 560 262 745 -7 131 -72 254 -160 300 -99 52 -283 53 -400 2
-139 -60 -273 -266 -284 -436 -1 -7 -16 -5 -49 7 -32 12 -69 18 -108 16 -196
-8 -414 -283 -503 -636 -46 -183 -33 -378 34 -510 58 -114 161 -163 322 -153
132 8 240 47 378 137 102 67 148 105 265 221 l95 94 67 -19 c73 -20 189 -24
265 -8 26 6 85 27 131 48 l82 39 0 -39 c0 -46 24 -155 47 -213 64 -162 185
-271 358 -324 84 -25 332 -26 425 0 167 45 313 154 378 284 27 52 37 62 64 68
43 9 117 33 148 48 39 18 153 91 173 111 23 23 23 24 -22 -148 -21 -83 -36
-158 -33 -168 9 -37 185 -105 265 -104 l39 1 32 85 c95 250 282 560 501 830
57 69 169 183 255 259 91 80 224 118 269 77 61 -55 49 -207 -36 -471 -32 -100
-160 -451 -182 -500 -39 -87 -50 -168 -26 -195 22 -24 105 -56 170 -65 28 -4
58 -9 67 -11 20 -3 23 0 140 212 120 214 332 526 451 663 102 116 197 182 265
183 114 1 139 -120 70 -341 -27 -87 -62 -213 -75 -266 -11 -46 -11 -182 -1
-224 23 -96 89 -188 160 -225 68 -35 200 -44 312 -21 229 47 483 340 666 769
l20 49 -27 36 c-49 64 -45 66 -96 -33 -166 -325 -313 -518 -447 -584 -43 -21
-70 -27 -121 -27 -74 0 -89 9 -108 67 -22 65 -11 122 83 424 83 268 81 420 -6
550 -48 71 -121 106 -225 107 -137 2 -223 -23 -338 -98 -75 -49 -202 -176
-279 -277 -32 -43 -60 -78 -61 -78 -2 0 8 33 20 73 95 298 44 577 -117 642
-228 91 -548 -96 -886 -519 -48 -60 -95 -118 -104 -130 -17 -20 -17 -20 -13
-1 2 11 15 74 29 140 14 66 26 137 26 158 0 136 -134 191 -290 120 -108 -50
-101 -38 -176 -328 -36 -143 -68 -268 -70 -279 -16 -85 -37 -126 -86 -176 -97
-96 -218 -175 -300 -194 -26 -6 -27 -5 -20 31 9 50 8 246 -1 303 -23 144 -29
166 -186 610 -22 63 -43 129 -46 145 -2 17 -7 41 -10 55 -12 51 -12 165 0 225
6 34 8 71 4 81 -11 28 -47 64 -67 65 -9 0 -27 2 -40 3 -12 2 -39 -5 -60 -14z
m-1253 -385 c27 -27 51 -122 46 -182 -18 -197 -69 -338 -209 -575 -28 -48 -54
-88 -57 -88 -15 0 -79 141 -99 220 -29 107 -36 290 -15 369 31 120 113 237
190 273 51 23 110 17 144 -17z m1175 -271 c5 -28 54 -231 66 -274 13 -44 29
-119 36 -168 3 -20 8 -48 10 -62 8 -39 15 -303 8 -327 l-6 -22 -72 26 c-168
59 -331 178 -432 315 l-35 47 53 63 c29 35 74 92 100 128 58 81 222 338 233
365 6 17 10 13 22 -25 7 -25 15 -54 17 -66z m-1781 -139 c12 -225 79 -386 222
-536 l47 -49 -53 -56 c-109 -114 -219 -207 -285 -239 -55 -28 -163 -28 -194 0
-47 42 -60 90 -56 215 5 168 47 311 154 525 47 95 150 261 157 253 1 -2 5 -52
8 -113z m1499 -685 c96 -68 187 -113 281 -141 86 -25 87 -26 20 -100 -108
-119 -318 -133 -437 -28 -122 108 -183 392 -97 456 13 9 28 -1 88 -62 39 -41
105 -97 145 -125z"/>
<path d="M6610 4358 c-106 -29 -157 -123 -162 -303 -2 -62 -8 -81 -51 -165
-58 -113 -131 -219 -243 -355 -152 -183 -195 -221 -242 -209 -14 4 -22 0 -26
-13 -3 -10 -22 -27 -42 -38 -46 -25 -86 -71 -110 -128 -16 -39 -28 -50 -84
-80 -120 -64 -254 -87 -342 -58 l-37 12 50 82 c100 163 181 348 225 511 19 71
23 110 21 195 -2 96 -5 112 -34 173 -62 132 -143 180 -306 184 -94 2 -173 -14
-242 -48 -83 -41 -203 -194 -230 -293 -4 -16 -9 -34 -11 -40 -6 -20 -15 -70
-17 -87 -2 -22 -1 -22 -39 -2 -159 82 -378 -60 -518 -336 -38 -75 -104 -250
-94 -250 2 0 0 -8 -5 -17 -15 -29 -32 -150 -33 -238 -1 -105 21 -205 65 -291
54 -106 158 -155 314 -147 209 10 412 120 639 349 l102 102 68 -18 c139 -38
322 -12 441 61 24 15 33 17 33 7 3 -107 49 -258 105 -341 117 -177 280 -251
540 -246 270 6 467 112 567 305 30 58 36 64 72 70 81 13 215 79 296 146 l35
28 16 -84 c42 -213 178 -356 390 -413 78 -21 313 -23 404 -4 317 65 627 277
844 574 53 72 138 214 166 276 l19 44 -39 33 c-22 19 -43 34 -46 34 -4 0 -26
-33 -49 -72 -182 -311 -507 -595 -773 -677 -146 -45 -295 -46 -390 -3 -138 63
-193 189 -178 411 1 15 12 20 59 26 213 26 441 108 635 227 232 142 375 302
437 488 31 91 32 236 3 301 -50 112 -173 171 -342 165 -108 -4 -163 -17 -271
-63 -373 -159 -750 -605 -848 -1003 -20 -81 -24 -88 -79 -138 -62 -57 -181
-134 -225 -145 -14 -4 -34 -10 -43 -14 -16 -6 -17 -1 -10 53 9 65 8 182 0 259
-15 129 -59 278 -170 580 -20 55 -43 125 -51 155 -8 30 -18 64 -21 75 -11 39
-12 221 -2 265 22 94 -43 154 -141 128z m1961 -369 c18 -18 20 -29 16 -83 -7
-74 -16 -105 -52 -176 -105 -208 -441 -455 -720 -529 -63 -17 -77 -15 -70 12
19 70 187 375 224 407 3 3 20 23 36 45 80 107 236 244 342 300 98 51 187 61
224 24z m-3267 -3 c51 -21 71 -72 71 -181 0 -49 -4 -111 -8 -137 -19 -119
-125 -358 -226 -511 -23 -37 -26 -38 -39 -20 -44 56 -96 205 -110 313 -25 205
18 368 128 478 66 66 123 84 184 58z m1211 -318 c16 -68 30 -127 32 -133 76
-296 92 -419 85 -644 -2 -43 -2 -43 -34 -37 -151 30 -360 170 -468 315 -44 59
-46 65 -31 80 64 64 246 322 342 484 18 31 36 57 39 57 4 0 19 -55 35 -122z
m-1790 -88 c9 -144 22 -217 54 -301 31 -79 95 -180 155 -244 31 -32 56 -61 56
-65 0 -18 -206 -215 -270 -259 -84 -58 -184 -78 -237 -48 -128 72 -96 402 74
741 46 94 153 269 160 262 1 -1 5 -40 8 -86z m1492 -702 c100 -72 189 -118
286 -148 43 -13 77 -29 77 -36 0 -7 -25 -38 -55 -68 -76 -75 -141 -99 -250
-94 -92 5 -143 27 -200 85 -114 119 -163 394 -78 441 12 7 29 -5 78 -57 35
-37 98 -92 142 -123z"/>
</g>
</svg>
